<?xml version="1.0" encoding="utf-8"?>
<!-- Generator: Adobe Illustrator 18.0.0, SVG Export Plug-In . SVG Version: 6.00 Build 0)  -->
<!DOCTYPE svg PUBLIC "-//W3C//DTD SVG 1.1//EN" "http://www.w3.org/Graphics/SVG/1.1/DTD/svg11.dtd">
<svg version="1.1" id="Lager_1" xmlns="http://www.w3.org/2000/svg" xmlns:xlink="http://www.w3.org/1999/xlink" x="0px" y="0px"
	 viewBox="0 0 400 400" enable-background="new 0 0 400 400" xml:space="preserve">
<g>
	<path fill="#FFF3E6" d="M147.6,234.1l6.2-35.5L262,62.4l14.5-17c-4.3-2-8.7-3.9-13.2-5.6l-0.1,0c-19.7-7.4-41.2-11.5-63.5-11.5
		c-30.2,0-58.7,7.4-83.8,20.5c-4.6,2.4-9.2,5-13.6,7.8C91,63.9,80.5,72.4,71.1,81.9l-0.3,0.3c-1.1,1.1-2.1,2.2-3.2,3.3
		c0,0,0,0.1-0.1,0.1c-1,1.1-2,2.1-2.9,3.2C40,116.3,23.8,151.2,19.7,189.8c-0.2,2.1-0.4,4.3-0.6,6.5c-0.2,2.3-0.3,4.6-0.4,6.9
		c-0.1,2.1-0.1,4.1-0.1,6.2c0,18.7,2.8,36.8,8.1,53.8h116.6L147.6,234.1z"/>
	<path fill="#FFF3E6" d="M310.5,102.5L203.3,238.6L170,252.2l-26.7,11h229.3c5.3-17,8.2-35.1,8.2-53.8c0-4.2-0.1-8.4-0.4-12.5v0
		c-0.1-2.4-0.4-4.7-0.6-7v0c-0.2-2.2-0.5-4.3-0.8-6.5v0c-5.7-39.7-24.3-75.1-51.3-102.1l-1.4,1.8L310.5,102.5z"/>
	<polygon fill="#444444" points="147.6,234.1 143.3,263.2 143.3,263.2 170,252.2 	"/>
	<polygon fill="#E5D6C1" points="203.3,238.6 178.3,218.8 153.9,198.6 147.6,234.1 170,252.2 	"/>
	<polygon fill="#5D937B" points="286.1,82.3 262,62.4 153.9,198.6 178.3,218.8 	"/>
	<polygon fill="#477C67" points="178.3,218.8 203.3,238.6 310.5,102.5 286.1,82.3 	"/>
	<polygon fill="#B2D8C5" points="286.1,82.3 310.5,102.5 326.2,83 277.6,44.1 276.5,45.4 262,62.4 	"/>
	<polygon fill="#FFA000" points="326.2,83 327.6,81.2 354.7,45.8 306.6,7.4 277.6,44.1 	"/>
	<path fill="#6DAF97" d="M143,263.2L143,263.2h-116h-0.2c22,74.6,91.1,129,172.8,129c81.2,0,149.9-53.7,172.5-127.6
		c0.1-0.5,0.3-0.9,0.4-1.4h-1.2H143z"/>
</g>
</svg>
