<?xml version="1.0" encoding="utf-8"?>
<!-- Generator: Adobe Illustrator 18.0.0, SVG Export Plug-In . SVG Version: 6.00 Build 0)  -->
<!DOCTYPE svg PUBLIC "-//W3C//DTD SVG 1.1//EN" "http://www.w3.org/Graphics/SVG/1.1/DTD/svg11.dtd">
<svg version="1.1" id="Lager_1" xmlns="http://www.w3.org/2000/svg" xmlns:xlink="http://www.w3.org/1999/xlink" x="0px" y="0px"
	 viewBox="0 0 400 400" enable-background="new 0 0 400 400" xml:space="preserve">
<g>
	<path fill="#FFF3E6" d="M25.9,260.7h49.4v-30.2h14.9v30.2v12.8h217.9v-12.8v-35.5H323v35.5h4.1h46.2c5-16.6,7.6-34.2,7.6-52.4
		c0-3.2-0.1-6.4-0.3-9.6c0-1-0.1-2-0.2-3.1v0c-0.1-2.4-0.4-4.7-0.6-7v0c-0.2-2.2-0.5-4.3-0.8-6.5v0c-2.7-19-8.4-37.1-16.6-53.8
		c-2.2-4.5-4.5-8.8-7.1-13.1c-0.4-0.7-0.9-1.4-1.3-2.2c-8.5-13.9-18.9-26.6-30.7-37.7c-1.7-1.6-3.4-3.2-5.1-4.7
		c-6.8-5.9-14-11.3-21.5-16.1c-3.6-2.3-7.2-4.5-11-6.5l0,0c-0.9-0.5-1.7-0.9-2.6-1.4c-2.3-1.2-4.5-2.3-6.9-3.4l-0.1,0
		c-4.4-2.1-8.8-4-13.4-5.7l-0.1,0c-2.7-1-5.3-1.9-8-2.8c-17.6-5.7-36.4-8.7-55.9-8.7c-0.7,0-1.4,0-2.1,0c-28.4,0.3-55.2,7.1-79,19
		c-0.5,0.2-0.9,0.4-1.4,0.7c-0.5,0.2-0.9,0.4-1.3,0.7c-0.2,0.1-0.4,0.2-0.5,0.3c-4.2,2.2-8.3,4.5-12.3,7c-0.5,0.3-0.9,0.6-1.4,0.9
		c-11.4,7.3-22,15.8-31.5,25.4L69,80.4c-1.1,1.1-2.1,2.2-3.2,3.3c0,0,0,0.1-0.1,0.1c-1,1.1-2,2.2-3,3.2
		c-10,11.2-18.6,23.6-25.6,36.9c-2.7,5-5,10.2-7.2,15.5c-6.3,15.4-10.5,31.9-12.4,49.1c-0.2,2.2-0.4,4.3-0.6,6.5
		c-0.2,2.3-0.3,4.6-0.4,7c0,0.2,0,0.4,0,0.6c0,1.9-0.1,3.8-0.1,5.7c0,20.7,3.5,40.7,9.9,59.3c1.3,3.7,2.7,7.3,4.1,11
		c1.9,4.6,4.1,9.2,6.4,13.6c3.3,6.3,6.9,12.4,10.8,18.2c1.3,1.9,2.6,3.8,4,5.6c0.2,0.3,0.4,0.5,0.6,0.8c1,1.5,2.2,2.9,3.3,4.3
		c1.7,2.2,3.5,4.3,5.3,6.4c0.3,0.4,0.7,0.8,1,1.2c0.3,0.4,0.6,0.7,1,1.1c0.9,1,1.8,2,2.8,3c1.2,1.3,2.3,2.5,3.6,3.7
		c1.6,1.6,3.2,3.1,4.8,4.6c0.7,0.6,1.3,1.3,2,1.9c0.8,0.7,1.6,1.5,2.4,2.2c0.3,0.3,0.6,0.5,0.9,0.8c19.2,16.6,41.8,29.3,66.8,36.8
		C88.5,364.8,43.1,318.8,25.9,260.7z M164,177l32.4,32.4V88.4h14.1v120.8l32.3-32.3l9.2,9.2l-48.6,48.6l0,0l-48.6-48.6L164,177z"/>
	<polygon fill="#FFA000" points="203.4,234.8 251.9,186.2 242.7,177 210.4,209.2 210.4,88.4 196.3,88.4 196.3,209.3 164,177 
		154.8,186.1 203.4,234.7 	"/>
	<path fill="#6DAF97" d="M324.4,260.8h-4v12.7h0v14.9h-229l-17.9-0.1h7.9l-1-27.5H24.2c17.1,57.9,62.3,103.7,119.9,121.7
		c17.1,5.4,35.4,8.3,54.3,8.3c81.8,0,151.1-54.1,173.7-128.6c0.1-0.5,0.3-0.9,0.4-1.4h-2.1H324.4z"/>
	<polygon fill="#477C67" points="308.1,225.2 308.1,260.7 308.1,273.5 90.2,273.5 90.2,260.7 90.2,230.5 75.3,230.5 75.3,260.7 
		75.3,288.3 75.4,288.3 75.4,288.4 323.1,288.4 323.1,273.5 323,273.5 323,260.7 323,225.2 	"/>
</g>
</svg>
