<?xml version="1.0" encoding="utf-8"?>
<!-- Generator: Adobe Illustrator 18.0.0, SVG Export Plug-In . SVG Version: 6.00 Build 0)  -->
<!DOCTYPE svg PUBLIC "-//W3C//DTD SVG 1.1//EN" "http://www.w3.org/Graphics/SVG/1.1/DTD/svg11.dtd">
<svg version="1.1" id="Lager_1" xmlns="http://www.w3.org/2000/svg" xmlns:xlink="http://www.w3.org/1999/xlink" x="0px" y="0px"
	 viewBox="0 0 400 400" enable-background="new 0 0 400 400" xml:space="preserve">
<g>
	<path fill="#FFF3E6" d="M186.1,91c-1.3-1.7-3.9-4.4-7.5-5.3c-0.2,0-0.4,0.1-0.6,0.1c0.1-0.1,0.2-0.1,0.3-0.2
		c-1.5-0.3-3.2-0.4-5.1,0.2c0,0-0.1,0-0.1,0c-9.3,2.7-25.5,12.4-28,13.9c-0.4,0.4-1.1,1.4-1.8,2.7c0,0,0,0,0,0
		c-0.4,0.7-0.8,1.6-1.1,2.5c-0.7,1.9-0.9,3.6-0.7,5.3c0.1,0.5,0.2,1,0.3,1.5l7,12.7c1.6,1.3,9.5,7.4,16.4,4.4
		c9.2-3.9,21.6-7.8,22.1-8c0,0,4.3-1.9,5.8-6.2c0.9-2.6,0.7-5.7-0.7-9.1l-5.4-13.3C186.9,92.2,186.6,91.7,186.1,91z"/>
	<path fill="#FFF3E6" d="M380.9,197L380.9,197c-0.1-2.4-0.4-4.7-0.6-7.1v0c-0.2-2.2-0.5-4.3-0.8-6.5v0c-2.7-19.1-8.4-37.2-16.6-53.9
		c-2.5-5.2-5.3-10.3-8.4-15.3c-8.5-13.9-18.9-26.6-30.8-37.7c-1.7-1.6-3.4-3.2-5.2-4.7c-6.8-5.9-14-11.3-21.6-16.1
		c-3.6-2.3-7.2-4.5-11-6.5l0,0c-0.9-0.5-1.7-0.9-2.6-1.4c-2.3-1.2-4.5-2.3-6.9-3.4l-0.1,0c-4.4-2.1-8.9-4-13.4-5.7l-0.1,0
		c-19.9-7.5-41.5-11.6-64-11.6c-30.5,0-59.2,7.5-84.4,20.7c-4.7,2.4-9.2,5.1-13.7,7.9c-11.4,7.3-22,15.9-31.5,25.5L69,81.5
		c-1.1,1.1-2.1,2.2-3.2,3.3c0,0,0,0.1-0.1,0.1c-1,1.1-2,2.2-3,3.3c-10,11.2-18.6,23.6-25.6,37c-2.7,5-5.1,10.2-7.2,15.5
		c-6.3,15.4-10.6,32-12.4,49.2c-0.2,2.2-0.4,4.3-0.6,6.5c-0.2,2.3-0.3,4.6-0.4,7c-0.1,2.1-0.1,4.2-0.1,6.3c0,24.9,5,48.7,14.1,70.3
		c1.9,4.7,4.1,9.2,6.4,13.6c3.3,6.3,6.9,12.4,10.9,18.2c1.3,1.9,2.6,3.8,4,5.6c1.2,1.8,2.6,3.5,3.9,5.2c3.2,4.1,6.5,8,10.1,11.7
		c1.2,1.3,2.4,2.5,3.6,3.7c1.6,1.6,3.2,3.1,4.8,4.6c0.7,0.6,1.3,1.3,2,1.9c0.8,0.7,1.6,1.5,2.4,2.2c7.6,6.7,15.8,12.8,24.5,18.1
		l-2.2-19.6l-0.7-3.9h0l-0.7-3.8L78.6,222.8c-1-5.7,2.7-11.1,8.4-12.2l12-2.2h0.1l56.5-10.2l32.2-5.8l23.2-4.2
		c5.7-1,11.1,2.8,12.2,8.4l5.2,28.7l6.1,33.5l5.1,28v0l17.6,95.8c22.9-7.7,43.7-19.8,61.5-35.2c1.8-1.5,3.5-3.1,5.2-4.7
		c6.4-6,12.4-12.5,17.9-19.3c0.6-0.8,1.3-1.6,1.9-2.4c0.5-0.7,1-1.4,1.6-2c0.5-0.7,1-1.4,1.5-2.1l0,0c1.3-1.7,2.5-3.5,3.7-5.3l0,0
		c1.3-1.9,2.6-3.9,3.8-5.9c2.7-4.3,5.2-8.7,7.5-13.2c0.7-1.3,1.3-2.6,1.9-3.9c11.4-23.8,17.9-50.6,17.9-78.8
		C381.4,205.4,381.2,201.2,380.9,197z M196.9,103.9c1.9,4.5,2.1,8.7,0.8,12.5c-2.3,6.4-8.4,9-8.7,9.1c-0.3,0.1-12.9,4.1-21.9,7.9
		c-10.5,4.5-21.3-5.1-21.8-5.5l-0.3-0.3l-7.7-14c-0.1-0.2-0.2-0.5-0.2-0.7l-7.5,4.5l-3.5,2.1c1.3,2.3,3.4,6.3,6.2,12.3
		c1.7,3.7,1.8,7.9,0.2,12.4c-2.3,6.4-7.1,11.2-7.3,11.4l-0.4,0.3c-10.3,6.3-26.4,16.3-28.5,18.1c-4.5,3.8-11-2.9-12.3-4.3l-0.2-0.3
		l-12.9-18.9l0,0c-3.8,2.7-4.4,0.8-4.4,0.8s-1.5-1.6-2.7-3.7c-1.2-2.1,0-4,0-4l3.7-1.8c-0.3-1.3-0.3-2.5,0-3.3l0.1-0.3
		c1-2.2,4.3-6.3,4.6-6.7l0.5-0.5c0.8-0.5,19.3-12.9,30.2-18.1c6.6-3.1,12.6-1.9,16.8,0.3c0.8,0.4,1.6,0.9,2.3,1.4
		c0.8-0.4,1.6-0.9,2.5-1.4c3.6-2.1,7.9-4.5,12.5-7.2c0.2-0.9,0.4-1.8,0.7-2.7c1.5-4.1,4-6.9,4.1-7.1l0.5-0.4
		c0.8-0.5,18.9-11.5,29.5-14.7c3.5-1,6.7-0.7,9.4,0.3c0.9,0.3,1.7,0.7,2.5,1.2c0.8-0.4,1.6-0.8,2.3-1.2c1-0.5,1.7-0.8,2.2-1
		c6.6-2.7,7.2-0.2,7.2-0.2l3.7,7.4l-2.1,0.5l-1.6,0.7l-3.8,1.6L196.9,103.9z M263,188.4c-1.3-0.2-2.5-0.5-3.7-0.9
		c-20.3-5.7-35.2-24.3-35.2-46.5c0-26.7,21.6-48.3,48.3-48.3c15.7,0,29.6,7.5,38.4,19l4.4-3c2.2-1.4,5.2-0.8,6.6,1.5
		c1.4,2.2,0.8,5.2-1.4,6.6l-4.5,3.1c3.1,6.4,4.9,13.6,4.9,21.1c0,0.4,0,0.7,0,1.1c-0.6,26.1-22,47.2-48.3,47.2
		C269.2,189.3,266,189,263,188.4z M354.3,221.1l-4.8,5.9l-43.6,55.3l-2.9-2.3l2.9,2.3l-10.1,4.1l-8.1,3.3l1.3-8.8l1.9-10.8l0.2,0.1
		l43.7-55.5l4.7-5.6l8.8-11.1l14.6,11.6L354.3,221.1z"/>
	<path fill="#FFF3E6" d="M120.9,119.9c-0.7-0.6-3-2.6-6.4-3.5c-2.6-0.7-5.9-0.7-9.5,1c-9.8,4.7-26.8,15.9-29.3,17.5
		c-1.1,1.4-2.7,3.5-3.5,4.9c-0.1,0.2-0.2,0.3-0.2,0.4c0,1.1,1.3,4.6,2.9,7.8c0.1,0.1,0.1,0.2,0.2,0.3l12.5,18.3c2.2,2.3,5,4,5.7,3.7
		c3-2.5,25.2-16.1,28.8-18.3c0.8-0.9,4.4-4.7,6-9.4c1.2-3.3,1.2-6.3,0-8.8C124.1,125.3,121.5,120.9,120.9,119.9
		C120.9,119.9,120.9,119.9,120.9,119.9z"/>
	<path fill="#E4D1C2" d="M249.3,170.6c-0.2-0.2-0.5-0.4-0.7-0.5c-2.8-2.3-5.2-5-7.2-8c-3.9-5.8-6.1-12.8-6.1-20.2
		c0-20.1,16.3-36.4,36.4-36.4c9.3,0,17.7,3.5,24.2,9.2c0.1,0,0.2,0,0.2,0c1.5,1.3,2.8,2.8,4.1,4.4c0.1-0.1,0.2-0.2,0.3-0.3l10.4-7
		c-8.8-11.6-22.7-19-38.4-19c-26.7,0-48.3,21.6-48.3,48.3c0,22.1,14.9,40.8,35.2,46.5c1.2,0.4,2.4,0.6,3.7,0.9L249.3,170.6
		L249.3,170.6z"/>
	<path fill="#E4D1C2" d="M299.5,125c-2.8-4.6-6.7-8.5-11.3-11.2c-0.1,0-0.2,0-0.3,0c3.5,2.1,6.6,4.8,9.2,8c0,0,0,0,0.1,0.1
		c0.8,1,1.5,2,2.2,3.1c0,0.1,0.1,0.1,0.2,0.2l1-0.9l0.1-0.1c0,0,0-0.1-0.1-0.1l-0.1,0L299.5,125z"/>
	<path fill="#F9F5ED" d="M241.8,154.6c-1.7-3.9-2.6-8.3-2.6-12.8c0-17.9,14.5-32.4,32.5-32.4c6,0,11.5,1.6,16.3,4.4
		c0.1,0,0.2,0,0.3,0c-0.1-0.1-0.2-0.1-0.3-0.2c2.7,0.1,5.3,0.4,7.9,1c-6.4-5.7-14.9-9.2-24.2-9.2c-20.1,0-36.4,16.3-36.4,36.4
		c0,7.5,2.3,14.4,6.1,20.2c0-0.3,0-0.7,0-1C241.3,158.8,241.5,156.7,241.8,154.6z"/>
	<path fill="#44322B" d="M286.3,113.7c0.5,0,1.1,0,1.6,0c-4.8-2.8-10.4-4.4-16.3-4.4c-17.9,0-32.5,14.5-32.5,32.4
		c0,4.5,0.9,8.9,2.6,12.8C244.7,131.5,263.5,113.7,286.3,113.7z"/>
	<path fill="#44322B" d="M297.1,121.7c-2.5-3.2-5.6-5.9-9.2-8C291.4,115.8,294.6,118.6,297.1,121.7z"/>
	<path fill="#44322B" d="M297.1,121.8c0.8,1,1.5,2,2.2,3.1C298.6,123.8,297.9,122.8,297.1,121.8z"/>
	<path fill="#F9F5ED" d="M252.2,167.8c-4.5-3.4-8.1-7.9-10.4-13.2c-0.3,2.1-0.4,4.2-0.4,6.4c0,0.3,0,0.7,0,1c2,3,4.4,5.7,7.2,8
		c0.2,0.2,0.5,0.4,0.7,0.5l-0.1-0.1L252.2,167.8z"/>
	<path fill="#F9F5ED" d="M288.2,113.8c4.6,2.7,8.5,6.6,11.3,11.2l1-0.9l0.1,0c0-0.1-0.1-0.1-0.1-0.2c-1.3-2.1-2.1-3.5-0.4-4.8
		c-1.2-1.6-2.6-3-4.1-4.4c-0.1,0-0.2,0-0.2,0c-2.5-0.6-5.2-0.9-7.9-1C288,113.7,288.1,113.7,288.2,113.8z"/>
	<path fill="#513B32" d="M297.1,121.8C297.1,121.8,297.1,121.8,297.1,121.8c-2.6-3.3-5.7-6-9.2-8c-0.5,0-1.1,0-1.6,0
		c-22.7,0-41.6,17.8-44.5,40.9c2.3,5.3,5.9,9.8,10.4,13.2c5.4,4.1,12.2,6.5,19.4,6.5c17.9,0,32.5-14.5,32.5-32.5
		c0-6.1-1.7-11.8-4.6-16.7c0-0.1-0.1-0.1-0.2-0.2C298.6,123.9,297.9,122.8,297.1,121.8z"/>
	<path fill="#F9F5ED" d="M300.6,124.1l-0.1,0.1l-1,0.9c2.9,4.9,4.6,10.6,4.6,16.7c0,17.9-14.5,32.5-32.5,32.5
		c-7.3,0-14-2.4-19.4-6.5l-3,2.7l0.1,0.1l0,0c6.1,4.8,13.9,7.6,22.3,7.6c20.1,0,36.4-16.3,36.4-36.4c0-5.2-1.1-10.2-3.1-14.6
		C303,128.1,301.9,126.1,300.6,124.1z"/>
	<path fill="#C1AA95" d="M320.7,142.2c0-0.4,0-0.7,0-1.1c0-7.6-1.8-14.7-4.9-21.1l-10.5,7.1c-0.1,0.1-0.2,0.1-0.3,0.2
		c2,4.5,3.1,9.4,3.1,14.6c0,20.1-16.3,36.4-36.4,36.4c-8.4,0-16.1-2.8-22.3-7.6l13.7,17.8c3,0.6,6.2,0.9,9.4,0.9
		C298.7,189.3,320.1,168.3,320.7,142.2z"/>
	<path fill="#F9F5ED" d="M300.1,119.1c-1.7,1.3-0.9,2.7,0.4,4.8c0,0.1,0.1,0.1,0.1,0.2c0,0,0,0.1,0.1,0.1c1.3,2,2.4,4,4.3,3.1
		c0.1-0.1,0.2-0.1,0.3-0.2l10.5-7.1l4.5-3.1c2.2-1.4,2.9-4.4,1.4-6.6c-1.4-2.2-4.4-2.9-6.6-1.5l-4.4,3l-10.4,7
		C300.3,118.9,300.2,119,300.1,119.1z"/>
	<path fill="#B2D8C5" d="M63.7,143.8c0,0-1.1,1.9,0,4c1.1,2.1,2.7,3.7,2.7,3.7s0.6,1.8,4.4-0.8c-1.4-2.7-2.8-6-3.4-8.6L63.7,143.8z"
		/>
	<path fill="#B2D8C5" d="M137,106.2c-4.6,2.6-8.9,5.1-12.5,7.2c-0.9,0.5-1.7,0.9-2.5,1.4c1,0.7,1.8,1.4,2.4,2l0.3,0.4
		c0,0,0.1,0.1,0.2,0.3c0.2,0.4,0.7,1.1,1.2,2.1l3.5-2.1l7.5-4.5C136.6,110.8,136.5,108.5,137,106.2z"/>
	<path fill="#B2D8C5" d="M178.6,85.8c-0.1,0-0.2,0-0.3,0c-0.1,0.1-0.2,0.1-0.3,0.2C178.2,85.8,178.4,85.8,178.6,85.8z"/>
	<path fill="#B2D8C5" d="M197,88.4l2.1-0.5l-3.7-7.4c0,0-0.6-2.5-7.2,0.2c-0.5,0.2-1.2,0.5-2.2,1c-0.6,0.3-1.4,0.7-2.3,1.2
		c3,1.7,5.4,4.2,6.8,6.3c0.3,0.4,0.5,0.7,0.7,1.1l0.1,0.3l0.1,0.3l3.8-1.6L197,88.4z"/>
	<path fill="#477C67" d="M124.7,117.1l-0.3-0.4c-0.6-0.6-1.5-1.3-2.4-2c-0.7-0.5-1.4-1-2.3-1.4c-4.2-2.1-10.2-3.4-16.8-0.3
		c-10.9,5.2-29.4,17.6-30.2,18.1l-0.5,0.5c-0.4,0.4-3.6,4.5-4.6,6.7l-0.1,0.3c-0.3,0.8-0.3,2,0,3.3c0.5,2.6,2,5.9,3.4,8.6l0,0
		l12.9,18.9l0.2,0.3c1.3,1.4,7.8,8,12.3,4.3c2.1-1.7,18.2-11.8,28.5-18.1l0.4-0.3c0.2-0.2,5.1-5,7.3-11.4c1.6-4.5,1.6-8.7-0.2-12.4
		c-2.8-6-4.9-10-6.2-12.3c-0.6-1-1-1.8-1.2-2.1C124.8,117.2,124.8,117.1,124.7,117.1z M128,142.7c-1.7,4.7-5.2,8.6-6,9.4
		c-3.6,2.2-25.9,15.9-28.8,18.3c-0.7,0.3-3.5-1.4-5.7-3.7L75,148.4c-0.1-0.1-0.1-0.2-0.2-0.3c-1.6-3.2-2.9-6.7-2.9-7.8
		c0.1-0.1,0.1-0.3,0.2-0.4c0.8-1.3,2.4-3.5,3.5-4.9c2.5-1.6,19.5-12.8,29.3-17.5c3.6-1.7,6.9-1.7,9.5-1c3.4,0.9,5.8,2.9,6.4,3.5
		c0,0,0,0,0,0c0.6,1,3.2,5.4,7.2,13.9C129.2,136.4,129.2,139.4,128,142.7z"/>
	<path fill="#477C67" d="M191.3,90.2c-0.2-0.3-0.4-0.7-0.7-1.1c-1.4-2.1-3.8-4.6-6.8-6.3c-0.8-0.4-1.6-0.9-2.5-1.2
		c-2.7-1-5.9-1.3-9.4-0.3c-10.6,3.1-28.7,14.2-29.5,14.7l-0.5,0.4c-0.1,0.1-2.6,3-4.1,7.1c-0.3,0.9-0.6,1.8-0.7,2.7
		c-0.4,2.3-0.4,4.6,0.2,6.7c0.1,0.2,0.2,0.5,0.2,0.7l7.7,14l0.3,0.3c0.5,0.4,11.3,10,21.8,5.5c9-3.8,21.6-7.8,21.9-7.9
		c0.3-0.1,6.4-2.7,8.7-9.1c1.3-3.7,1.1-7.9-0.8-12.5l-5.4-13.2l-0.1-0.3L191.3,90.2z M193.3,114.8c-1.5,4.3-5.8,6.2-5.8,6.2
		c-0.6,0.2-13,4.1-22.1,8c-6.9,3-14.8-3.1-16.4-4.4l-7-12.7c-0.2-0.5-0.3-1-0.3-1.5c-0.2-1.6,0-3.4,0.7-5.3c0.3-0.9,0.7-1.8,1.1-2.5
		c0,0,0,0,0,0c0.7-1.3,1.4-2.3,1.8-2.7c2.5-1.5,18.7-11.2,28-13.9c0,0,0.1,0,0.1,0c1.9-0.5,3.6-0.5,5.1-0.2c0.1,0,0.2,0,0.3,0
		c3.6,0.9,6.2,3.5,7.5,5.3c0.5,0.7,0.8,1.2,1,1.4l5.4,13.3C193.9,109.1,194.2,112.2,193.3,114.8z"/>
	<polygon fill="#444444" points="287.7,289.9 295.8,286.5 289,281 	"/>
	<polygon fill="#FFEFD7" points="298.5,276.6 291,270.5 291.1,270.4 290.9,270.3 289,281 295.8,286.5 305.9,282.4 303,280.1 
		298.5,276.5 	"/>
	<polygon fill="#5D937B" points="298.5,276.6 298.5,276.5 298.5,276.4 342.1,220.9 334.8,214.9 291.1,270.4 291,270.5 	"/>
	<polygon fill="#477C67" points="342.1,220.9 298.5,276.4 298.5,276.5 303,280.1 305.9,282.4 349.5,227.1 	"/>
	<polygon fill="#B2D8C5" points="334.8,214.9 342.1,220.9 349.5,227.1 354.3,221.1 339.5,209.3 	"/>
	<polygon fill="#FFA000" points="339.5,209.3 354.3,221.1 362.9,209.9 348.3,198.2 	"/>
	<path fill="#6DAF97" d="M181.3,391.3c-0.3,0-0.5,0-0.8-0.1C180.7,391.3,181,391.3,181.3,391.3z"/>
	<path fill="#6DAF97" d="M181.6,391.4c4.5,0.3,7.7,0.7,12.2,0.8c-4.2-0.1-8.3-0.6-12.4-0.9C181.6,391.3,181.6,391.4,181.6,391.4z"/>
	<path fill="#6DAF97" d="M239.5,286.9l-5.1-28l-6.1-33.5l-5.2-28.7c-1-5.7-6.5-9.5-12.2-8.4l-23.2,4.2l-32.2,5.8l-56.5,10.2h-0.1
		l-12,2.2c-5.7,1-9.5,6.5-8.4,12.2l20.8,114.8l0.7,3.8h0l0.7,3.9l2.2,19.6c0.5,0.3,1,0.7,1.6,1c0.7,0.5,1.5,0.9,2.2,1.3
		c0.7,0.4,1.4,0.9,2.2,1.3c2.8,1.6,5.6,3.1,8.4,4.5L91.7,235.6l122.9-21.4l32.1,160.5l-91,12.3c8,1.9,16.3,3.4,24.8,4.2c0,0,0,0,0,0
		c0-0.1,0.1-0.2,0.1-0.4c0.5-3.2,3.2-5.3,6.6-5.3c3.7,0,6.6,2.9,6.7,6.5v0.2c1.7,0,3.4,0,5.1,0c18.9,0,37.1-2.9,54.3-8.2
		c0.6-0.2,1.3-0.4,1.9-0.6c0.7-0.2,1.3-0.4,2-0.6l0-0.2L239.5,286.9L239.5,286.9z M151.9,214.4c-0.8,0-1.4-0.6-1.4-1.4
		c0-0.8,0.6-1.4,1.4-1.4c0.8,0,1.4,0.6,1.4,1.4C153.3,213.8,152.7,214.4,151.9,214.4z"/>
	<path fill="#E9DDD5" d="M214.6,214.2L91.7,235.6l25.6,137.3v0c12.1,6.1,24.9,10.8,38.3,14.1h0l91-12.3L214.6,214.2z"/>
	<circle fill="#F7F6F5" cx="151.9" cy="213" r="1.4"/>
	<path fill="#F9F9F9" d="M187.1,385.5c-3.4,0-6.1,2.1-6.6,5.3c0,0.1-0.1,0.3-0.1,0.4c0,0,0,0,0,0c0,0,0.1,0,0.1,0
		c0.3,0,0.5,0,0.8,0.1c0,0,0.1,0,0.1,0c4.1,0.3,8.2,0.8,12.4,0.9v-0.2C193.7,388.4,190.8,385.5,187.1,385.5z"/>
</g>
</svg>
