<?xml version="1.0" encoding="utf-8"?>
<!-- Generator: Adobe Illustrator 18.1.1, SVG Export Plug-In . SVG Version: 6.00 Build 0)  -->
<svg version="1.1" id="Lager_1" xmlns="http://www.w3.org/2000/svg" xmlns:xlink="http://www.w3.org/1999/xlink" x="0px" y="0px"
	 viewBox="53 79.8 896 894.2" enable-background="new 53 79.8 896 894.2" xml:space="preserve">
<path fill="#FFFFFF" d="M947.1,526.2c0,128.2-54.1,244.2-141.4,324.9c-4.4,4.4-8.8,7.7-12.2,11C715,930.6,613.4,971.5,500.7,971.5
	c-123.8,0-236.5-50.8-317.1-132.6c-3.3-3.3-5.5-5.5-8.8-8.8c-74-78.5-119.3-185.6-119.3-303.9s45.3-225.4,120.4-305
	c3.3-3.3,5.5-6.6,8.8-8.8c23.2-23.2,48.6-44.2,77.3-61.9c11-6.6,22.1-13.3,33.1-18.8C357,98.6,426.6,79.8,501.8,79.8
	c74,0,144.8,18.8,206.6,50.8c11,5.5,22.1,12.2,33.1,18.8c18.8,12.2,36.5,25.4,53,39.8c4.4,3.3,8.8,7.7,12.2,11
	C892.9,282,947.1,398,947.1,526.2z"/>
<path fill="#E2BD88" d="M806.7,130.6V851c-2.2,2.2-4.4,4.4-6.6,6.6s-3.3,3.3-5.5,5.5l0,0c-78.5,68.5-180.1,109.4-292.8,109.4
	c-122.7,0-233.1-49.7-313.8-129.3c-1.1-1.1-2.2-2.2-3.3-3.3c-1.1-1.1-1.1-1.1-2.2-2.2c-2.2-2.2-4.4-4.4-6.6-6.6V130.6H806.7z"/>
<rect x="411" y="217.7" transform="matrix(-0.6863 -0.7273 0.7273 -0.6863 477.4689 811.449)" fill="#E28100" width="5.5" height="170.2"/>
<path fill="#E28100" d="M319.4,769.3H231c-6.6,0-11-5.5-11-11l0,0c0-6.6,5.5-11,11-11h88.4c6.6,0,11,5.5,11,11l0,0
	C330.5,764.9,325,769.3,319.4,769.3z"/>
<rect x="479.4" y="302" transform="matrix(-0.6946 -0.7194 0.7194 -0.6946 730.7592 919.7252)" fill="#E28100" width="162.4" height="5.5"/>
<circle fill="#FFA000" cx="489.6" cy="235.6" r="32"/>
<rect x="224.4" y="347.2" fill="#E28100" width="547" height="329.3"/>
<rect x="258.7" y="424.5" fill="#FFA000" width="464.1" height="166.9"/>
<rect x="270.8" y="465.4" fill="none" width="442" height="113.8"/>
<text transform="matrix(1 0 0 1 352.5792 545.4766)" fill="#FFFFFF" font-family="'ArialMT'" font-size="113.7083">2</text>
<text transform="matrix(1 0 0 1 428.8216 545.4766)" fill="#FFFFFF" font-family="'ArialMT'" font-size="113.7083" letter-spacing="11">4</text>
<text transform="matrix(1 0 0 1 511.6986 539.9444)" fill="#FFFFFF" font-family="'ArialMT'" font-size="113.7083" letter-spacing="11">.</text>
<text transform="matrix(1 0 0 1 559.2026 545.4766)" fill="#FFFFFF" font-family="'ArialMT'" font-size="113.7083">7</text>
</svg>
