<?xml version="1.0" encoding="utf-8"?>
<!-- Generator: Adobe Illustrator 18.1.1, SVG Export Plug-In . SVG Version: 6.00 Build 0)  -->
<svg version="1.1" id="Lager_1" xmlns="http://www.w3.org/2000/svg" xmlns:xlink="http://www.w3.org/1999/xlink" x="0px" y="0px"
	 viewBox="57.6 66.3 888.3 888.4" enable-background="new 57.6 66.3 888.3 888.4" xml:space="preserve">
<circle fill="#FFFFFF" cx="501.7" cy="510.5" r="444.2"/>
<polygon fill="#FFA000" points="807.7,577.9 691.7,470.7 701.7,466.3 815.5,571.3 "/>
<path fill="#E28100" d="M675.1,487.3l-82.9,34.3L204.4,681.8l169.1-320.4l7.7-89.5c0,0,2.2,7.7,4.4,19.9c-2.2,4.4-3.3,15.5-5.5,26.5
	c-3.3,15.5-13.3,71.8,7.7,103.9c22.1,32,47.5,75.1,89.5,90.6c23.2,7.7,43.1,14.4,67.4,14.4c33.1,0,57.5,2.2,80.7-12.2L675.1,487.3z"
	/>
<path fill="#E2BD88" d="M928.2,636.5c0,1.1-1.1,2.2-1.1,3.3c-55.2,182.3-225.4,314.9-425.4,314.9c-201.1,0-372.4-133.7-426.5-318.2
	H928.2L928.2,636.5z"/>
<path fill="#FFA000" d="M553.6,535.9c-103.9,0-189-85.1-189-189s85.1-189,189-189s187.8,85.1,187.8,189S657.5,535.9,553.6,535.9z
	 M553.6,171.3c-97.2,0-176.8,79.6-176.8,176.8s79.6,176.8,176.8,176.8s176.8-79.6,176.8-176.8S650.8,171.3,553.6,171.3z"/>
<polygon fill="#FFA000" points="556.9,265.2 575.7,324.9 637.6,326 586.7,361.3 604.4,421 554.7,383.4 503.9,418.8 524.9,360.2 
	475.1,322.7 537,323.8 "/>
</svg>
