<?xml version="1.0" encoding="utf-8"?>
<!-- Generator: Adobe Illustrator 18.0.0, SVG Export Plug-In . SVG Version: 6.00 Build 0)  -->
<!DOCTYPE svg PUBLIC "-//W3C//DTD SVG 1.1//EN" "http://www.w3.org/Graphics/SVG/1.1/DTD/svg11.dtd">
<svg version="1.1" id="Lager_1" xmlns="http://www.w3.org/2000/svg" xmlns:xlink="http://www.w3.org/1999/xlink" x="0px" y="0px"
	 viewBox="0 0 80 80" enable-background="new 0 0 80 80" xml:space="preserve">
<path fill="#FFFFFF" d="M78.4,39.9c0,5.9-1.3,11.5-3.7,16.4c-0.1,0.3-0.3,0.5-0.4,0.8c-0.5,0.9-1,1.9-1.6,2.8
	c-0.3,0.4-0.5,0.8-0.8,1.2l0,0c-0.3,0.4-0.5,0.7-0.8,1.1l0,0c-0.1,0.1-0.2,0.3-0.3,0.4c-0.1,0.1-0.2,0.3-0.3,0.4
	c-0.1,0.2-0.3,0.3-0.4,0.5c-1.1,1.4-2.4,2.8-3.7,4c-0.4,0.3-0.7,0.7-1.1,1c-3.7,3.2-8,5.7-12.8,7.3c0,0,0,0,0,0
	c-0.1,0-0.3,0.1-0.4,0.1c-0.1,0-0.3,0.1-0.4,0.1c-3.6,1.1-7.4,1.7-11.3,1.7c-0.4,0-0.7,0-1,0c-0.9,0-1.9-0.1-2.8-0.2
	c-1.8-0.2-3.5-0.5-5.2-0.9h0c-2.8-0.7-5.5-1.7-8-2.9v0c-0.6-0.3-1.2-0.6-1.8-0.9c-0.2-0.1-0.3-0.2-0.5-0.3c-0.2-0.1-0.3-0.2-0.5-0.3
	c-0.1-0.1-0.2-0.1-0.3-0.2c-1.8-1.1-3.5-2.4-5.1-3.8c-0.2-0.1-0.3-0.3-0.5-0.5c-0.1-0.1-0.3-0.3-0.4-0.4c-0.3-0.3-0.7-0.6-1-1
	c-0.3-0.3-0.5-0.5-0.7-0.8c-0.7-0.8-1.4-1.6-2.1-2.4c-0.3-0.4-0.6-0.7-0.8-1.1c-0.3-0.4-0.6-0.8-0.8-1.2C8,60,7.3,58.7,6.6,57.4
	c-0.5-0.9-0.9-1.9-1.3-2.8c-1.9-4.5-2.9-9.5-2.9-14.7c0-0.4,0-0.9,0-1.3c0-0.5,0-1,0.1-1.5c0-0.5,0.1-0.9,0.1-1.4
	c0.4-3.6,1.3-7,2.6-10.2c0.5-1.1,0.9-2.2,1.5-3.2c1.5-2.8,3.3-5.4,5.3-7.7c0.2-0.2,0.4-0.5,0.6-0.7c0,0,0,0,0,0
	c0.2-0.2,0.4-0.5,0.7-0.7l0.1-0.1c2-2,4.2-3.8,6.6-5.3c0.9-0.6,1.9-1.1,2.8-1.6C28,3.4,34,1.9,40.4,1.9c4.7,0,9.2,0.9,13.3,2.4l0,0
	c0.9,0.4,1.9,0.8,2.8,1.2l0,0C57,5.7,57.5,6,58,6.2c0.2,0.1,0.4,0.2,0.5,0.3l0,0c0.8,0.4,1.5,0.9,2.3,1.4c1.6,1,3.1,2.1,4.5,3.4
	c0.4,0.3,0.7,0.6,1.1,1c2.5,2.3,4.6,5,6.4,7.9c0.6,1,1.2,2.1,1.7,3.2c1.7,3.5,2.9,7.2,3.5,11.2v0c0.1,0.5,0.1,0.9,0.2,1.4v0
	c0.1,0.5,0.1,1,0.1,1.5v0C78.4,38.2,78.4,39,78.4,39.9z"/>
<path fill="#E4D1C2" d="M64.3,20.4L64.3,20.4c-1.8-2.9-5-4.8-8.6-4.8c-5.6,0-10.1,4.5-10.1,10.1c0,4.6,3.1,8.5,7.3,9.7
	c0.3,0.1,0.5,0.1,0.8,0.2c0.6,0.1,1.3,0.2,2,0.2c5.5,0,9.9-4.4,10.1-9.8c0-0.1,0-0.2,0-0.2C65.8,23.7,65.2,21.9,64.3,20.4z
	 M55.5,33.4c-1.8,0-3.4-0.6-4.6-1.6l0,0l0,0l0.6-0.6l9.9-8.9l0.2-0.2l0.5-0.3c0.1,0.1,0.2,0.3,0.2,0.4c0.6,1.1,0.9,2.3,0.9,3.5
	C63.1,30,59.7,33.4,55.5,33.4z"/>
<path fill="#F9F5ED" d="M62.3,25.8c0,3.7-3,6.8-6.8,6.8c-2.8,0-5.2-1.7-6.2-4.1c-0.1,0.4-0.1,0.9-0.1,1.3c0,0.1,0,0.1,0,0.2
	c-0.8-1.2-1.3-2.7-1.3-4.2c0-4.2,3.4-7.6,7.6-7.6c2,0,3.7,0.7,5.1,2c-0.5-0.1-1.1-0.2-1.7-0.2C60.9,21.1,62.3,23.3,62.3,25.8z"/>
<path fill="#44322B" d="M62.3,25.8c0,3.7-3,6.8-6.8,6.8c-2.8,0-5.2-1.7-6.2-4.1c-0.4-0.8-0.5-1.7-0.5-2.7c0-3.7,3-6.8,6.8-6.8
	c1.2,0,2.4,0.3,3.4,0.9C60.9,21.1,62.3,23.3,62.3,25.8z"/>
<path fill="#F9F5ED" d="M51.5,31.2l-0.6,0.6l0,0c0,0-0.1-0.1-0.1-0.1c-0.6-0.5-1.1-1-1.5-1.7c0-0.1,0-0.1,0-0.2c0-0.5,0-0.9,0.1-1.3
	C49.8,29.5,50.5,30.5,51.5,31.2z"/>
<path fill="#F9F5ED" d="M62,21.8l-0.5,0.3l-0.2,0.2c-0.6-1-1.4-1.8-2.4-2.4c0.6,0,1.1,0.1,1.7,0.2C61.1,20.6,61.6,21.2,62,21.8z"/>
<path fill="#513B32" d="M61.3,22.3l-9.9,8.9c-0.9-0.7-1.7-1.6-2.2-2.7c0.6-4.8,4.5-8.5,9.3-8.5c0.1,0,0.2,0,0.3,0
	C59.9,20.5,60.7,21.3,61.3,22.3z"/>
<path fill="#F9F5ED" d="M63.1,25.8c0,4.2-3.4,7.6-7.6,7.6c-1.8,0-3.4-0.6-4.6-1.6l0,0l0,0l0.6-0.6c1.1,0.9,2.5,1.4,4.1,1.4
	c3.7,0,6.8-3,6.8-6.8c0-1.3-0.4-2.5-1-3.5l0.2-0.2l0.5-0.3c0.1,0.1,0.2,0.3,0.2,0.4C62.8,23.3,63.1,24.5,63.1,25.8z"/>
<path fill="#513B32" d="M62.3,25.8c0,3.7-3,6.8-6.8,6.8c-1.5,0-2.9-0.5-4.1-1.4l9.9-8.9C61.9,23.3,62.3,24.5,62.3,25.8z"/>
<path fill="#C1AA95" d="M65.8,25.6c0,0.1,0,0.2,0,0.2c-0.1,5.4-4.6,9.8-10.1,9.8c-0.7,0-1.3-0.1-2-0.2l-2.8-3.7
	c1.3,1,2.9,1.6,4.6,1.6c4.2,0,7.6-3.4,7.6-7.6c0-1.3-0.3-2.5-0.9-3.5c-0.1-0.1-0.2-0.3-0.2-0.4l2.3-1.4
	C65.2,21.9,65.8,23.7,65.8,25.6z"/>
<path fill="#F9F5ED" d="M65.7,20.6l-3.1,2.1c-0.5,0.3-0.7-0.2-1-0.7l0,0c-0.3-0.5-0.5-0.8,0-1.1l3.1-2.1c0.5-0.3,1.1-0.2,1.4,0.3
	l0,0C66.3,19.7,66.1,20.3,65.7,20.6z"/>
<g>
	<path fill="none" d="M13.1,27.8C13.1,27.8,13.1,27.8,13.1,27.8l3,4.4c0.5,0.5,1.2,1,1.3,0.9c0.7-0.6,6-3.8,6.8-4.3
		c0.2-0.2,1-1.1,1.4-2.2c0.3-0.8,0.3-1.5,0-2.1c-0.9-2-1.6-3.1-1.7-3.3c0,0,0,0,0,0c-0.2-0.1-0.7-0.6-1.5-0.8
		c-0.6-0.2-1.4-0.2-2.2,0.2c-2.3,1.1-6.3,3.8-6.9,4.1c-0.3,0.3-0.6,0.8-0.8,1.1c0,0,0,0.1-0.1,0.1C12.4,26.2,12.7,27,13.1,27.8z"/>
	<path fill="none" d="M37.6,13c-0.4-0.1-0.8-0.1-1.2,0c0,0,0,0,0,0c-2.2,0.6-6,2.9-6.6,3.3c-0.1,0.1-0.3,0.3-0.4,0.6c0,0,0,0,0,0
		c-0.1,0.2-0.2,0.4-0.3,0.6c-0.2,0.4-0.2,0.9-0.2,1.2c0,0.1,0,0.2,0.1,0.4l1.7,3c0.4,0.3,2.2,1.8,3.9,1.1c2.2-0.9,5.1-1.9,5.2-1.9
		c0,0,1-0.5,1.4-1.5c0.2-0.6,0.2-1.3-0.2-2.1l-1.3-3.1c0-0.1-0.1-0.2-0.2-0.3C39.1,13.9,38.5,13.3,37.6,13
		C37.6,13.1,37.6,13.1,37.6,13C37.6,13.1,37.6,13.1,37.6,13z"/>
	<path fill="#E28100" d="M10.5,26.8c0,0-0.3,0.5,0,0.9c0.3,0.5,0.6,0.9,0.6,0.9s0.1,0.4,1-0.2c-0.3-0.6-0.7-1.4-0.8-2L10.5,26.8z"/>
	<path fill="#E28100" d="M27.8,17.9c-1.1,0.6-2.1,1.2-3,1.7c-0.2,0.1-0.4,0.2-0.6,0.3c0.2,0.2,0.4,0.3,0.6,0.5l0.1,0.1
		c0,0,0,0,0,0.1c0.1,0.1,0.2,0.3,0.3,0.5l0.8-0.5l1.8-1.1C27.7,19,27.7,18.4,27.8,17.9z"/>
	<path fill="#E28100" d="M40.5,13.8c0.1,0.1,0.1,0.2,0.2,0.3l0,0.1l0,0.1l0.9-0.4l0.4-0.2l0.5-0.1l-0.9-1.8c0,0-0.1-0.6-1.7,0
		c-0.1,0-0.3,0.1-0.5,0.2c-0.2,0.1-0.3,0.2-0.5,0.3C39.6,12.8,40.2,13.4,40.5,13.8z"/>
	<path fill="#CE7A2E" d="M37.5,13.1c0,0,0.1,0,0.1,0C37.7,13.1,37.6,13.1,37.5,13.1C37.6,13.1,37.6,13.1,37.5,13.1z"/>
	<path fill="#FFA000" d="M23.6,20.3c0.2-0.1,0.4-0.2,0.7-0.4c-0.2-0.1-0.3-0.2-0.5-0.3c-1-0.5-2.4-0.8-4-0.1c-2.6,1.2-7,4.2-7.2,4.3
		l-0.1,0.1c-0.1,0.1-0.9,1.1-1.1,1.6l0,0.1c-0.1,0.2-0.1,0.5,0,0.8l1.1-0.5c0.2-0.3,0.6-0.8,0.8-1.1c0.6-0.4,4.6-3,6.9-4.1
		c0.9-0.4,1.6-0.4,2.2-0.2c0.8,0.2,1.4,0.7,1.5,0.8c0,0,0,0,0,0c0.1,0.2,0.8,1.3,1.7,3.3c0.3,0.6,0.3,1.3,0,2.1
		c-0.4,1.1-1.2,2-1.4,2.2c-0.9,0.5-6.1,3.8-6.8,4.3c-0.2,0.1-0.8-0.3-1.3-0.9l-3-4.3c0,0,0-0.1,0-0.1c-0.5,0.3-0.8,0.5-0.9,0.6
		c0,0,0,0,0,0l0,0l3,4.5l0,0.1c0.3,0.3,1.9,1.9,2.9,1c0.5-0.4,4.3-2.8,6.8-4.3l0.1-0.1c0,0,1.2-1.2,1.7-2.7c0.4-1.1,0.4-2.1,0-2.9
		c-0.7-1.4-1.2-2.4-1.5-2.9l-0.1,0.1C25,21,24.4,20.5,23.6,20.3z"/>
	<path fill="#FFA000" d="M13.1,27.8c-0.4-0.8-0.7-1.6-0.7-1.9c0,0,0-0.1,0.1-0.1l-1.1,0.5c0.1,0.6,0.5,1.4,0.8,2c0,0,0,0,0,0
		C12.3,28.3,12.7,28.1,13.1,27.8z"/>
	<path fill="#FFA000" d="M24.9,20.5L24.9,20.5c-0.2-0.2-0.4-0.4-0.6-0.6c-0.2,0.1-0.5,0.3-0.7,0.4c0.8,0.2,1.4,0.7,1.5,0.8l0.1-0.1
		C25.1,20.8,25,20.6,24.9,20.5C24.9,20.5,24.9,20.5,24.9,20.5z"/>
	<path fill="#FFA000" d="M40.7,14.2l-0.2,0.1c-0.4-0.6-1.5-1.6-2.9-1.2c0.8,0.2,1.5,0.8,1.8,1.2c0.1,0.2,0.2,0.3,0.2,0.3l1.3,3.1
		c0.3,0.8,0.4,1.5,0.2,2.1c-0.4,1-1.4,1.5-1.4,1.5c-0.1,0-3.1,1-5.2,1.9c-1.6,0.7-3.5-0.7-3.9-1.1l-1.7-3c0-0.1-0.1-0.2-0.1-0.4
		l-0.1,0.1l-0.9,0.5c0,0.1,0,0.1,0.1,0.2l1.8,3.3l0.1,0.1c0.1,0.1,2.7,2.4,5.1,1.3c2.1-0.9,5.1-1.9,5.2-1.9c0.1,0,1.5-0.6,2.1-2.2
		c0.3-0.9,0.3-1.9-0.2-3L40.7,14.2z"/>
	<path fill="#FFA000" d="M29.3,17c0.2-0.3,0.3-0.5,0.4-0.6c0.6-0.4,4.4-2.7,6.6-3.3c0,0,0,0,0,0c0.4-0.1,0.8-0.1,1.2,0
		c0.5-0.3,0.9-0.5,1.3-0.7c-0.2-0.1-0.4-0.2-0.6-0.3c-0.6-0.2-1.4-0.3-2.2-0.1c-2.5,0.7-6.8,3.4-7,3.5L29,15.6c0,0-0.6,0.7-1,1.7
		c-0.1,0.2-0.1,0.4-0.2,0.6C28.3,17.6,28.8,17.3,29.3,17C29.3,17,29.3,17,29.3,17z"/>
	<path fill="#FFA000" d="M28.9,18.9c-0.1-0.4,0-0.8,0.2-1.2c0.1-0.2,0.2-0.4,0.3-0.6c-0.5,0.3-1,0.6-1.5,0.9c-0.1,0.5-0.1,1.1,0,1.6
		l0.9-0.5L28.9,18.9z"/>
	<path fill="#FFA000" d="M37.7,13.1c1.4-0.3,2.5,0.7,2.9,1.2l0.2-0.1l0-0.1l0-0.1c0-0.1-0.1-0.2-0.2-0.3c-0.3-0.5-0.9-1.1-1.6-1.5
		C38.5,12.6,38.1,12.8,37.7,13.1C37.6,13.1,37.7,13.1,37.7,13.1z"/>
</g>
<polygon fill="#444444" points="59.2,54.8 58.9,56.6 60.6,55.9 "/>
<polygon fill="#FFEFD7" points="59.2,54.8 60.6,55.9 62.7,55.1 59.6,52.5 "/>
<polygon fill="#5D937B" points="59.6,52.6 68.7,41 70.2,42.2 61.1,53.9 "/>
<polygon fill="#477C67" points="71.8,43.5 62.7,55.1 61.1,53.8 70.2,42.2 "/>
<polygon fill="#B2D8C5" points="68.7,41 69.7,39.9 72.7,42.3 71.8,43.5 "/>
<polygon fill="#FFA000" points="69.7,39.9 71.5,37.5 74.5,40 72.7,42.3 "/>
<path fill="#E28100" d="M52.5,76c-0.1,0-0.3,0.1-0.4,0.1c-0.1,0-0.3,0.1-0.4,0.1c-3.6,1.1-7.4,1.7-11.3,1.7c-0.4,0-0.7,0-1.1,0
	c-0.9,0-1.6-0.1-2.5-0.2c0,0-0.3,0-0.2,0c-1.8-0.2-3.5-0.5-5.2-0.9h0c-2.8-0.7-5.5-1.7-8-2.9v0c-0.6-0.3-1.2-0.6-1.8-0.9
	c-0.2-0.1-0.3-0.2-0.5-0.3c-0.2-0.1-0.3-0.2-0.5-0.3c-0.1-0.1-0.2-0.1-0.3-0.2l-0.5-4.1l-0.1-0.8h0l-0.1-0.8l-4.3-23.9
	c-0.2-1.2,0.6-2.3,1.8-2.5l2.5-0.5h0l11.8-2.1l6.7-1.2l4.8-0.9c1.2-0.2,2.3,0.6,2.5,1.8l1.1,6l1.3,7l1.1,5.8v0L52.5,76L52.5,76z"/>
<path fill="#E9DDD5" d="M50.3,74.3l-19,2.6h0c-2.8-0.7-5.5-1.7-8-2.9v0L18,45.3l25.6-4.5L50.3,74.3z"/>
<circle fill="#FFFFFF" cx="30.6" cy="40.6" r="0.3"/>
<path fill="#FFF3E6" d="M39.3,77.9L39.3,77.9c-0.9,0-1.9-0.1-2.8-0.2c0,0,0-0.1,0-0.1c0.1-0.7,0.7-1.1,1.4-1.1
	C38.7,76.6,39.3,77.2,39.3,77.9z"/>
</svg>
