<?xml version="1.0" encoding="utf-8"?>
<!-- Generator: Adobe Illustrator 17.1.0, SVG Export Plug-In . SVG Version: 6.00 Build 0)  -->
<!DOCTYPE svg PUBLIC "-//W3C//DTD SVG 1.1//EN" "http://www.w3.org/Graphics/SVG/1.1/DTD/svg11.dtd">
<svg version="1.1" xmlns="http://www.w3.org/2000/svg" xmlns:xlink="http://www.w3.org/1999/xlink" x="0px" y="0px"
	 viewBox="0 0 90 90" style="enable-background:new 0 0 90 90;" xml:space="preserve">
<style type="text/css">
	.st0{fill:#959595;}
	.st1{fill:#D0D0D0;}
	.st2{fill:#373737;}
	.st3{fill:none;stroke:#959595;stroke-width:4;stroke-linecap:square;stroke-miterlimit:10;}
	.st4{fill:#FFFFFF;}
</style>
<g id="Layer_1">
	<g>
		<rect x="18" y="12" class="st1" width="54" height="21"/>
	</g>
	<polygon class="st1" points="24,39 24,45 27,45 27,42 30,42 30,51 27,51 27,54 36,54 36,51 33,51 33,42 36,42 36,45 39,45 39,39 	
		"/>
	<g>
		<g>
			<path class="st1" d="M78,6v78H12V6H78 M84,0H6v90h78V0L84,0z"/>
		</g>
	</g>
	<rect x="45" y="39.1" class="st1" width="27" height="2.9"/>
	<rect x="45" y="45.1" class="st1" width="27" height="2.9"/>
	<rect x="45" y="51.1" class="st1" width="27" height="2.9"/>
	<rect x="18" y="60" class="st1" width="54" height="2.9"/>
	<rect x="18" y="66" class="st1" width="54" height="2.9"/>
	<rect x="18" y="72" class="st1" width="27" height="2.9"/>
</g>
<g id="Layer_2">
</g>
</svg>
